<?xml version="1.0" encoding="UTF-8" standalone="no"?><svg xmlns="http://www.w3.org/2000/svg" xmlns:xlink="http://www.w3.org/1999/xlink" contentStyleType="text/css" height="205px" preserveAspectRatio="none" style="width:992px;height:205px;background:#FFFFFF;" version="1.1" viewBox="0 0 992 205" width="992px" zoomAndPan="magnify"><defs/><g><g id="elem_chantier"><ellipse cx="94.7915" cy="170.6583" fill="#F1F1F1" rx="88.7915" ry="20.1583" style="stroke:#181818;stroke-width:0.5;"/><text fill="#000000" font-family="sans-serif" font-size="14" lengthAdjust="spacing" textLength="139" x="25.2915" y="173.505">Gérer ses chantiers</text></g><g id="elem_artisans"><ellipse cx="302.995" cy="170.699" fill="#F1F1F1" rx="83.995" ry="19.199" style="stroke:#181818;stroke-width:0.5;"/><text fill="#000000" font-family="sans-serif" font-size="14" lengthAdjust="spacing" textLength="128" x="238.7335" y="173.6356">Gérer ses artisans</text></g><g id="elem_aff"><ellipse cx="552.9508" cy="170.4902" fill="#F1F1F1" rx="130.4508" ry="28.4902" style="stroke:#181818;stroke-width:0.5;"/><text fill="#000000" font-family="sans-serif" font-size="14" lengthAdjust="spacing" textLength="178" x="463.9508" y="165.1884">Gérer quels artisans sont</text><text fill="#000000" font-family="sans-serif" font-size="14" lengthAdjust="spacing" textLength="184" x="460.9508" y="181.4853">affectés à quels chantiers</text></g><g id="elem_pay"><ellipse cx="852.7529" cy="170.6506" fill="#F1F1F1" rx="133.7529" ry="29.1506" style="stroke:#181818;stroke-width:0.5;"/><text fill="#000000" font-family="sans-serif" font-size="14" lengthAdjust="spacing" textLength="191" x="754.2529" y="166.2497">Calculer automatiquement</text><text fill="#000000" font-family="sans-serif" font-size="14" lengthAdjust="spacing" textLength="138" x="780.7529" y="182.5466">la paye d’un artisan</text></g><!--MD5=[4206b647878100e6066f92523e03a5d6]
entity Entreprise--><g id="elem_Entreprise"><ellipse cx="428" cy="14" fill="#F1F1F1" rx="8" ry="8" style="stroke:#181818;stroke-width:0.5;"/><path d="M428,22 L428,49 M415,30 L441,30 M428,49 L415,64 M428,49 L441,64 " fill="none" style="stroke:#181818;stroke-width:0.5;"/><text fill="#000000" font-family="sans-serif" font-size="14" lengthAdjust="spacing" textLength="76" x="390" y="78.4951">Entreprise</text></g><!--MD5=[f6da8e3655b82b7b97bb921de0b7253b]
link Entreprise to chantier--><g id="link_Entreprise_chantier"><path d="M389.801,58.839 C328.99,81.666 210.244,126.2401 143.512,151.2898 " fill="none" id="Entreprise-to-chantier" style="stroke:#181818;stroke-width:1.0;"/><polygon fill="#181818" points="138.799,153.0591,148.6306,153.6411,143.4801,151.3019,145.8192,146.1513,138.799,153.0591" style="stroke:#181818;stroke-width:1.0;"/></g><!--MD5=[a2d5e645b087a37ba416ec281c7e9a17]
link Entreprise to artisans--><g id="link_Entreprise_artisans"><path d="M390.834,81.666 C369.291,103.2094 342.913,129.5873 324.718,147.7816 " fill="none" id="Entreprise-to-artisans" style="stroke:#181818;stroke-width:1.0;"/><polygon fill="#181818" points="320.736,151.7637,329.9283,148.228,324.2715,148.2281,324.2713,142.5712,320.736,151.7637" style="stroke:#181818;stroke-width:1.0;"/></g><!--MD5=[3f5c74dad09e3b44bae3e37f8525e83e]
link Entreprise to aff--><g id="link_Entreprise_aff"><path d="M465.166,81.666 C483.364,99.8641 505.012,121.512 522.263,138.7628 " fill="none" id="Entreprise-to-aff" style="stroke:#181818;stroke-width:1.0;"/><polygon fill="#181818" points="526.098,142.598,522.5627,133.4055,522.5625,139.0624,516.9057,139.0623,526.098,142.598" style="stroke:#181818;stroke-width:1.0;"/></g><!--MD5=[e57883373a7385e9d5067ec76490f81f]
link Entreprise to pay--><g id="link_Entreprise_pay"><path d="M466.09,55.703 C534.345,75.778 678.924,118.3012 770.727,145.3021 " fill="none" id="Entreprise-to-pay" style="stroke:#181818;stroke-width:1.0;"/><polygon fill="#181818" points="775.603,146.7363,768.0963,140.3606,770.8059,145.3262,765.8403,148.0358,775.603,146.7363" style="stroke:#181818;stroke-width:1.0;"/></g><!--MD5=[9893d0c5e642c0922e75c6dcb58e886f]
@startuml
usecase chantier as "Gérer ses chantiers"
usecase artisans as "Gérer ses artisans"
usecase aff as "Gérer quels artisans sont\naffectés à quels chantiers"
usecase pay as "Calculer automatiquement\nla paye d’un artisan"

actor Entreprise 

Entreprise - -> chantier
Entreprise - -> artisans
Entreprise - -> aff
Entreprise - -> pay
@enduml

PlantUML version 1.2022.2(Sat Mar 05 16:30:19 UTC 2022)
(GPL source distribution)
Java Runtime: Java(TM) SE Runtime Environment
JVM: Java HotSpot(TM) 64-Bit Server VM
Default Encoding: UTF-8
Language: en
Country: US
--></g></svg>